<?xml version="1.0" encoding="UTF-8"?>
<svg xmlns="http://www.w3.org/2000/svg" xmlns:xlink="http://www.w3.org/1999/xlink" width="400px" height="298px" viewBox="0 0 400 298" version="1.1">
<g id="surface1">
<path style=" stroke:none;fill-rule:nonzero;fill:rgb(42.352941%,38.823529%,100%);fill-opacity:1;" d="M 227.054688 20.960938 C 227.054688 26.1875 222.828125 30.414062 217.609375 30.414062 C 212.398438 30.414062 208.171875 26.1875 208.171875 20.960938 C 208.171875 15.742188 212.398438 11.515625 217.609375 11.515625 C 222.828125 11.515625 227.054688 15.742188 227.054688 20.960938 Z M 227.054688 20.960938 "/>
<path style=" stroke:none;fill-rule:nonzero;fill:rgb(100%,100%,100%);fill-opacity:1;" d="M 216.679688 24.570312 C 216.460938 24.570312 216.257812 24.5 216.085938 24.375 L 216.078125 24.367188 L 213.859375 22.664062 C 213.429688 22.335938 213.34375 21.71875 213.671875 21.28125 C 214.007812 20.851562 214.625 20.765625 215.054688 21.101562 L 216.492188 22.203125 L 219.890625 17.765625 C 220.226562 17.335938 220.84375 17.257812 221.273438 17.585938 L 221.257812 17.617188 L 221.273438 17.585938 C 221.710938 17.914062 221.789062 18.539062 221.460938 18.96875 L 217.460938 24.1875 C 217.273438 24.429688 216.984375 24.570312 216.679688 24.570312 Z M 216.679688 24.570312 "/>
<path style=" stroke:none;fill-rule:nonzero;fill:rgb(42.352941%,38.823529%,100%);fill-opacity:1;" d="M 227.054688 84.859375 C 227.054688 90.078125 222.828125 94.3125 217.609375 94.3125 C 212.398438 94.3125 208.171875 90.078125 208.171875 84.859375 C 208.171875 79.640625 212.398438 75.40625 217.609375 75.40625 C 222.828125 75.40625 227.054688 79.640625 227.054688 84.859375 Z M 227.054688 84.859375 "/>
<path style=" stroke:none;fill-rule:nonzero;fill:rgb(100%,100%,100%);fill-opacity:1;" d="M 216.679688 88.460938 C 216.460938 88.460938 216.257812 88.398438 216.085938 88.265625 L 216.078125 88.257812 L 213.859375 86.5625 C 213.429688 86.226562 213.34375 85.609375 213.671875 85.179688 C 214.007812 84.742188 214.625 84.664062 215.054688 84.992188 L 216.492188 86.09375 L 219.890625 81.664062 C 220.226562 81.226562 220.84375 81.148438 221.273438 81.476562 L 221.257812 81.507812 L 221.273438 81.476562 C 221.710938 81.8125 221.789062 82.429688 221.460938 82.859375 L 217.460938 88.078125 C 217.273438 88.320312 216.984375 88.460938 216.679688 88.460938 Z M 216.679688 88.460938 "/>
<path style=" stroke:none;fill-rule:nonzero;fill:rgb(100%,71.764706%,71.764706%);fill-opacity:1;" d="M 241.328125 184.171875 C 241.265625 182.585938 241.90625 181.054688 243.085938 179.984375 C 244.257812 178.921875 245.84375 178.429688 247.421875 178.648438 L 256.070312 161.664062 L 260.953125 170.28125 L 251.992188 185.085938 C 251.4375 187.757812 248.976562 189.601562 246.257812 189.367188 C 243.53125 189.132812 241.421875 186.898438 241.328125 184.171875 Z M 241.328125 184.171875 "/>
<path style=" stroke:none;fill-rule:nonzero;fill:rgb(100%,71.764706%,71.764706%);fill-opacity:1;" d="M 281.648438 291.109375 L 274.867188 291.109375 L 271.632812 264.90625 L 281.648438 264.90625 Z M 281.648438 291.109375 "/>
<path style=" stroke:none;fill-rule:nonzero;fill:rgb(18.431373%,18.039216%,25.490196%);fill-opacity:1;" d="M 283.382812 297.695312 L 261.5 297.695312 L 261.5 297.414062 C 261.5 292.710938 265.3125 288.890625 270.015625 288.890625 L 283.382812 288.890625 Z M 283.382812 297.695312 "/>
<path style=" stroke:none;fill-rule:nonzero;fill:rgb(100%,71.764706%,71.764706%);fill-opacity:1;" d="M 318.445312 291.109375 L 311.65625 291.109375 L 308.429688 264.90625 L 318.445312 264.90625 Z M 318.445312 291.109375 "/>
<path style=" stroke:none;fill-rule:nonzero;fill:rgb(18.431373%,18.039216%,25.490196%);fill-opacity:1;" d="M 320.179688 297.695312 L 298.289062 297.695312 L 298.289062 297.414062 C 298.289062 292.710938 302.101562 288.890625 306.8125 288.890625 L 320.179688 288.890625 Z M 320.179688 297.695312 "/>
<path style=" stroke:none;fill-rule:nonzero;fill:rgb(89.803922%,89.803922%,89.803922%);fill-opacity:1;" d="M 251.757812 169.390625 L 248.789062 174.335938 C 248.789062 174.335938 253.726562 174.335938 254.71875 181.75 L 258.664062 176.804688 Z M 251.757812 169.390625 "/>
<path style=" stroke:none;fill-rule:nonzero;fill:rgb(18.431373%,18.039216%,25.490196%);fill-opacity:1;" d="M 303.609375 159.007812 C 303.609375 159.007812 311.507812 179.765625 312.992188 192.617188 C 314.46875 205.46875 316.9375 239.570312 316.9375 239.570312 L 321.882812 283.5625 L 308.054688 285.539062 L 302.125 241.054688 L 288.789062 197.070312 L 285.828125 241.054688 L 283.359375 281.085938 L 270.523438 281.585938 L 269.53125 240.070312 L 264.101562 187.179688 L 267.0625 161.976562 Z M 303.609375 159.007812 "/>
<path style=" stroke:none;fill-rule:nonzero;fill:rgb(100%,71.764706%,71.764706%);fill-opacity:1;" d="M 293.726562 83.9375 C 293.726562 90.765625 288.203125 96.296875 281.382812 96.296875 C 274.5625 96.296875 269.039062 90.765625 269.039062 83.9375 C 269.039062 77.117188 274.5625 71.585938 281.382812 71.585938 C 288.203125 71.585938 293.726562 77.117188 293.726562 83.9375 Z M 293.726562 83.9375 "/>
<path style=" stroke:none;fill-rule:nonzero;fill:rgb(89.803922%,89.803922%,89.803922%);fill-opacity:1;" d="M 293.976562 95.992188 L 298.914062 99.453125 L 305.335938 164.203125 L 265.335938 165.1875 L 270.765625 120.210938 L 275.703125 107.359375 L 279.273438 102.648438 Z M 293.976562 95.992188 "/>
<path style=" stroke:none;fill-rule:nonzero;fill:rgb(18.431373%,18.039216%,25.490196%);fill-opacity:1;" d="M 294.96875 142.453125 L 296.476562 97.742188 C 296.476562 97.742188 299.40625 97.96875 300.398438 99.453125 C 301.382812 100.9375 317.679688 103.90625 317.679688 103.90625 L 314.71875 149.867188 C 314.71875 149.867188 327.0625 186.445312 322.617188 188.421875 C 318.171875 190.398438 310.273438 189.898438 310.273438 189.898438 Z M 294.96875 142.453125 "/>
<path style=" stroke:none;fill-rule:nonzero;fill:rgb(18.431373%,18.039216%,25.490196%);fill-opacity:1;" d="M 271.015625 136.773438 L 276.25 106.640625 L 264.59375 114.53125 L 267.554688 136.273438 L 265.085938 151.101562 C 265.085938 151.101562 255.703125 192.125 258.664062 193.609375 C 261.632812 195.09375 265.085938 193.609375 265.085938 193.609375 L 271.015625 152.09375 Z M 271.015625 136.773438 "/>
<path style=" stroke:none;fill-rule:nonzero;fill:rgb(18.431373%,18.039216%,25.490196%);fill-opacity:1;" d="M 268.046875 113.539062 L 264.59375 114.53125 L 263.109375 134.296875 L 260.640625 151.59375 L 248.789062 172.851562 C 248.789062 172.851562 254.71875 168.898438 257.1875 180.265625 L 270.242188 157.523438 Z M 268.046875 113.539062 "/>
<path style=" stroke:none;fill-rule:nonzero;fill:rgb(18.431373%,18.039216%,25.490196%);fill-opacity:1;" d="M 291.71875 72.171875 L 294.046875 71.234375 C 294.046875 71.234375 289.179688 65.875 282.40625 66.335938 L 284.3125 64.242188 C 284.3125 64.242188 279.65625 62.375 275.421875 67.273438 C 273.195312 69.84375 270.625 72.875 269.015625 76.28125 L 266.523438 76.28125 L 267.5625 78.570312 L 263.921875 80.867188 L 267.664062 80.453125 C 267.4375 81.710938 267.40625 82.992188 267.5625 84.257812 C 267.71875 85.523438 268.367188 86.679688 269.359375 87.476562 C 269.359375 87.476562 272.25 81.5 272.25 80.5625 L 272.25 82.898438 C 272.25 82.898438 274.578125 80.796875 274.578125 79.398438 L 275.84375 81.03125 L 276.484375 78.46875 L 284.3125 81.03125 L 283.039062 78.929688 L 287.914062 79.632812 L 286.007812 77.0625 L 293.539062 87.65625 C 293.539062 87.65625 297.859375 75.664062 291.71875 72.171875 Z M 291.71875 72.171875 "/>
<path style=" stroke:none;fill-rule:nonzero;fill:rgb(100%,71.764706%,71.764706%);fill-opacity:1;" d="M 294.914062 180.117188 C 295.15625 178.546875 296.085938 177.171875 297.445312 176.351562 C 298.804688 175.539062 300.460938 175.367188 301.960938 175.882812 L 313.734375 160.90625 L 316.859375 170.304688 L 305.195312 183.085938 C 304.132812 185.601562 301.359375 186.929688 298.734375 186.171875 C 296.109375 185.414062 294.46875 182.8125 294.914062 180.117188 Z M 294.914062 180.117188 "/>
<path style=" stroke:none;fill-rule:nonzero;fill:rgb(89.803922%,89.803922%,89.803922%);fill-opacity:1;" d="M 314.96875 174.828125 L 310.523438 180.265625 L 304.59375 169.882812 L 307.0625 165.4375 Z M 314.96875 174.828125 "/>
<path style=" stroke:none;fill-rule:nonzero;fill:rgb(18.431373%,18.039216%,25.490196%);fill-opacity:1;" d="M 313.976562 105.632812 L 317.929688 103.65625 C 317.929688 103.65625 320.890625 107.609375 321.382812 111.070312 C 321.882812 114.53125 324.351562 118.976562 324.351562 121.445312 C 324.351562 123.921875 331.265625 147.148438 331.265625 147.148438 L 315.460938 179.273438 C 315.460938 179.273438 312 167.414062 304.59375 166.421875 L 316.9375 149.125 L 310.023438 136.773438 Z M 313.976562 105.632812 "/>
<path style=" stroke:none;fill-rule:nonzero;fill:rgb(79.607843%,79.607843%,79.607843%);fill-opacity:1;" d="M 399.460938 298 L 209.4375 298 C 209.164062 298 208.9375 297.773438 208.9375 297.5 C 208.9375 297.226562 209.164062 297 209.4375 297 L 399.460938 297 C 399.734375 297 399.960938 297.226562 399.960938 297.5 C 399.960938 297.773438 399.734375 298 399.460938 298 Z M 399.460938 298 "/>
<path style=" stroke:none;fill-rule:nonzero;fill:rgb(100%,100%,100%);fill-opacity:1;" d="M 182.046875 105.820312 L 0 105.820312 L 0 63.890625 L 182.046875 63.890625 Z M 182.046875 105.820312 "/>
<path style=" stroke:none;fill-rule:nonzero;fill:rgb(42.352941%,38.823529%,100%);fill-opacity:1;" d="M 26.273438 77.757812 C 25.296875 77.757812 24.5 78.554688 24.5 79.53125 C 24.5 80.507812 25.296875 81.304688 26.273438 81.304688 L 155.78125 81.304688 C 156.757812 81.304688 157.546875 80.507812 157.546875 79.53125 C 157.546875 78.554688 156.757812 77.757812 155.78125 77.757812 Z M 26.273438 77.757812 "/>
<path style=" stroke:none;fill-rule:nonzero;fill:rgb(42.352941%,38.823529%,100%);fill-opacity:1;" d="M 26.273438 88.40625 C 25.296875 88.40625 24.5 89.195312 24.492188 90.179688 C 24.492188 91.15625 25.289062 91.953125 26.265625 91.960938 L 108.140625 91.960938 C 108.773438 91.960938 109.359375 91.625 109.679688 91.070312 C 110 90.523438 110 89.84375 109.679688 89.296875 C 109.359375 88.742188 108.773438 88.40625 108.140625 88.40625 Z M 26.273438 88.40625 "/>
<path style=" stroke:none;fill-rule:nonzero;fill:rgb(89.803922%,89.803922%,89.803922%);fill-opacity:1;" d="M 182.046875 105.820312 L 0 105.820312 L 0 63.890625 L 182.046875 63.890625 Z M 2.992188 102.828125 L 179.054688 102.828125 L 179.054688 66.890625 L 2.992188 66.890625 Z M 2.992188 102.828125 "/>
<path style=" stroke:none;fill-rule:nonzero;fill:rgb(100%,100%,100%);fill-opacity:1;" d="M 182.046875 169.71875 L 0 169.71875 L 0 127.789062 L 182.046875 127.789062 Z M 182.046875 169.71875 "/>
<path style=" stroke:none;fill-rule:nonzero;fill:rgb(90.196078%,90.196078%,90.196078%);fill-opacity:1;" d="M 26.273438 141.648438 C 25.296875 141.648438 24.5 142.445312 24.5 143.421875 C 24.5 144.40625 25.296875 145.195312 26.273438 145.203125 L 155.78125 145.203125 C 156.757812 145.195312 157.546875 144.40625 157.546875 143.421875 C 157.546875 142.445312 156.757812 141.648438 155.78125 141.648438 Z M 26.273438 141.648438 "/>
<path style=" stroke:none;fill-rule:nonzero;fill:rgb(90.196078%,90.196078%,90.196078%);fill-opacity:1;" d="M 26.273438 152.304688 C 25.296875 152.296875 24.5 153.09375 24.492188 154.070312 C 24.492188 155.054688 25.289062 155.851562 26.265625 155.851562 L 108.140625 155.851562 C 108.773438 155.851562 109.359375 155.515625 109.679688 154.960938 C 110 154.414062 110 153.734375 109.679688 153.1875 C 109.359375 152.640625 108.773438 152.296875 108.140625 152.304688 Z M 26.273438 152.304688 "/>
<path style=" stroke:none;fill-rule:nonzero;fill:rgb(89.803922%,89.803922%,89.803922%);fill-opacity:1;" d="M 182.046875 169.71875 L 0 169.71875 L 0 127.789062 L 182.046875 127.789062 Z M 2.992188 166.71875 L 179.054688 166.71875 L 179.054688 130.78125 L 2.992188 130.78125 Z M 2.992188 166.71875 "/>
<path style=" stroke:none;fill-rule:nonzero;fill:rgb(100%,100%,100%);fill-opacity:1;" d="M 183.539062 41.929688 L 1.5 41.929688 L 1.5 0 L 183.539062 0 Z M 183.539062 41.929688 "/>
<path style=" stroke:none;fill-rule:nonzero;fill:rgb(42.352941%,38.823529%,100%);fill-opacity:1;" d="M 27.765625 13.867188 C 26.789062 13.867188 26 14.65625 26 15.640625 C 26 16.617188 26.789062 17.414062 27.765625 17.414062 L 157.273438 17.414062 C 158.25 17.414062 159.046875 16.617188 159.046875 15.640625 C 159.046875 14.65625 158.25 13.867188 157.273438 13.867188 Z M 27.765625 13.867188 "/>
<path style=" stroke:none;fill-rule:nonzero;fill:rgb(42.352941%,38.823529%,100%);fill-opacity:1;" d="M 27.765625 24.515625 C 26.789062 24.515625 25.992188 25.304688 25.992188 26.289062 C 25.992188 27.265625 26.78125 28.0625 27.765625 28.0625 L 109.640625 28.0625 C 110.273438 28.070312 110.859375 27.726562 111.171875 27.179688 C 111.492188 26.632812 111.492188 25.953125 111.171875 25.398438 C 110.859375 24.851562 110.273438 24.515625 109.640625 24.515625 Z M 27.765625 24.515625 "/>
<path style=" stroke:none;fill-rule:nonzero;fill:rgb(89.803922%,89.803922%,89.803922%);fill-opacity:1;" d="M 183.539062 41.929688 L 1.5 41.929688 L 1.5 0 L 183.539062 0 Z M 4.492188 38.9375 L 180.546875 38.9375 L 180.546875 2.992188 L 4.492188 2.992188 Z M 4.492188 38.9375 "/>
<path style=" stroke:none;fill-rule:nonzero;fill:rgb(94.509804%,94.509804%,94.509804%);fill-opacity:1;" d="M 368.703125 298.226562 L 368.703125 262.117188 C 368.703125 262.117188 382.765625 287.71875 368.703125 298.226562 Z M 368.703125 298.226562 "/>
<path style=" stroke:none;fill-rule:nonzero;fill:rgb(94.509804%,94.509804%,94.509804%);fill-opacity:1;" d="M 369.570312 298.21875 L 342.992188 273.804688 C 342.992188 273.804688 371.34375 280.75 369.570312 298.21875 Z M 369.570312 298.21875 "/>
<path style=" stroke:none;fill-rule:nonzero;fill:rgb(42.352941%,38.823529%,100%);fill-opacity:1;" d="M 251 173.632812 C 251 178.851562 246.765625 183.085938 241.554688 183.085938 C 236.335938 183.085938 232.109375 178.851562 232.109375 173.632812 C 232.109375 168.414062 236.335938 164.179688 241.554688 164.179688 C 246.765625 164.179688 251 168.414062 251 173.632812 Z M 251 173.632812 "/>
<path style=" stroke:none;fill-rule:nonzero;fill:rgb(100%,100%,100%);fill-opacity:1;" d="M 240.617188 177.234375 C 240.40625 177.234375 240.195312 177.171875 240.03125 177.039062 L 240.015625 177.03125 L 237.796875 175.335938 C 237.367188 175 237.28125 174.382812 237.617188 173.953125 C 237.945312 173.515625 238.5625 173.4375 239 173.765625 L 240.4375 174.867188 L 243.835938 170.4375 C 244.164062 170 244.78125 169.921875 245.21875 170.25 L 245.195312 170.28125 L 245.21875 170.25 C 245.648438 170.585938 245.726562 171.203125 245.398438 171.632812 L 241.40625 176.851562 C 241.21875 177.09375 240.921875 177.234375 240.617188 177.234375 Z M 240.617188 177.234375 "/>
</g>
</svg>
